<svg id="Capa_1" enable-background="new 0 0 512 512" height="512" viewBox="0 0 512 512" width="512" xmlns="http://www.w3.org/2000/svg"><g><g><path d="m447.34 69.464c3.846-5.109 4.463-11.838 1.608-17.56-2.854-5.723-8.601-9.277-14.996-9.277h-272.997c-3.634-24.093-24.458-42.627-49.548-42.627-27.643 0-50.133 22.489-50.133 50.133 0 27.643 22.489 50.133 50.133 50.133 6.461 0 12.639-1.231 18.316-3.468 0 0 113.999 151.405 114 151.406 6.068 8.058 9.433 18.106 9.433 28.213v142.875c0 3.909-.406 7.818-1.21 11.643-4.715 22.414-22.646 39.609-45.014 43.879-2.777.444-27.457 5.021-32.575 28.052-.494 2.222.047 4.549 1.472 6.325 1.424 1.776 3.578 2.809 5.855 2.809h116.653c4.146 0 7.506-3.36 7.506-7.506s-3.361-7.506-7.506-7.506c0 0-104.199 0-104.198-.001 5.339-5.239 11.211-6.461 18.158-7.942 32.374-6.904 55.872-36.239 55.872-69.753v-142.876c0-2.197-.131-4.388-.367-6.567h20.88c-.236 2.179-.367 4.371-.367 6.567v142.875c0 33.595 23.622 62.957 56.166 69.816 6.544 1.379 12.902 3.013 17.864 7.881h-28.682c-4.146 0-7.506 3.36-7.506 7.506s3.361 7.506 7.506 7.506h41.136c2.277 0 4.43-1.033 5.855-2.809 1.425-1.777 1.966-4.103 1.472-6.325-3.794-17.067-18.816-25.133-34.551-28.449-25.639-5.404-44.247-28.588-44.247-55.125v-142.876c0-10.082 3.368-20.157 9.433-28.212zm-335.933 15.788c-19.365 0-35.12-15.754-35.12-35.12s15.755-35.12 35.12-35.12c16.788 0 30.847 11.844 34.294 27.614h-23.17c-6.395 0-12.141 3.555-14.996 9.278-2.854 5.722-2.238 12.452 1.608 17.56l11.044 14.668c-2.808.728-5.748 1.12-8.78 1.12zm180.783 169.584h-27.903c-1.494-4.031-3.41-7.882-5.715-11.522-.008-.012-.015-.025-.023-.037-3.259-5.235-7.163-9.855-10.85-14.752-5.974-7.935-98.956-131.421-101.875-135.31 11.01.14 21.999 1.108 32.905 2.594 5.135.7 10.254 1.517 15.358 2.421 5.027.89 9.956 1.846 14.913 2.865 4.061.835 8.026-1.794 8.854-5.855.828-4.062-1.794-8.026-5.856-8.854-25.385-5.154-51.391-9.045-77.36-8.019l-13.502-17.932c-.537-.713-.387-1.388-.167-1.829s.67-.967 1.562-.967h311.421c.893 0 1.342.526 1.562.967s.369 1.116-.168 1.829l-20.077 26.665c-7.845 5.108-16.28 9.245-25.102 12.284-20.321 7.002-42.008 8.847-63.376 7.81-27.222-1.321-54.15-7.094-80.53-13.188-4.045-.934-8.071 1.583-9.005 5.621-.934 4.039 1.582 8.07 5.622 9.005 26.711 6.173 53.693 11.913 81.132 13.468 24.013 1.361 48.186-.756 71.047-8.523.124-.042.247-.085.37-.128l-94.66 125.724c-3.539 4.697-6.535 10.154-8.577 15.663z"/></g></g></svg>