<?xml version="1.0" standalone="no"?>
<!DOCTYPE svg PUBLIC "-//W3C//DTD SVG 20010904//EN"
 "http://www.w3.org/TR/2001/REC-SVG-20010904/DTD/svg10.dtd">
<svg version="1.0" xmlns="http://www.w3.org/2000/svg"
 width="1500.000000pt" height="1500.000000pt" viewBox="0 0 1500.000000 1500.000000"
 preserveAspectRatio="xMidYMid meet">
<metadata>
Created by potrace 1.16, written by Peter Selinger 2001-2019
</metadata>
<g transform="translate(0.000000,1500.000000) scale(0.100000,-0.100000)"
fill="#000000" stroke="none">
<path d="M6890 13869 c-1265 -85 -2432 -590 -3348 -1450 -651 -611 -1150
-1386 -1431 -2224 -187 -558 -274 -1096 -275 -1700 -1 -521 44 -883 169 -1369
186 -727 547 -1447 1017 -2028 337 -417 760 -808 1175 -1086 51 -35 93 -65 93
-69 0 -3 -15 -24 -33 -47 -157 -195 -389 -606 -491 -869 -82 -211 -145 -424
-185 -618 -42 -206 -82 -570 -67 -616 12 -36 378 -284 651 -440 931 -533 1986
-813 3067 -813 873 0 1672 166 2496 519 343 147 735 368 1067 600 77 54 147
109 157 122 17 22 18 35 8 149 -27 325 -72 559 -162 845 -120 387 -331 794
-583 1126 l-35 46 88 58 c572 380 1097 914 1496 1522 434 663 712 1401 825
2188 40 276 46 382 46 760 0 449 -21 684 -96 1059 -204 1021 -695 1953 -1429
2710 -600 618 -1352 1090 -2182 1367 -625 209 -1368 303 -2038 258z m418 -478
c20 -10 48 -30 61 -44 l23 -26 -43 -10 c-120 -29 -310 -100 -447 -166 l-154
-75 -56 39 c-89 60 -217 120 -342 161 l-115 37 55 12 c209 45 594 85 863 89
98 2 124 -1 155 -17z m533 -160 c125 -14 211 -37 314 -86 140 -67 243 -153
368 -308 21 -26 46 -47 57 -47 10 0 65 11 122 25 370 89 794 99 1092 25 188
-47 359 -137 484 -254 131 -124 217 -262 276 -441 47 -144 58 -217 46 -311
-22 -177 -88 -377 -170 -515 -111 -186 -240 -306 -445 -410 -66 -34 -91 -52
-96 -70 -4 -13 -7 -288 -8 -611 l-1 -588 -2530 0 -2530 0 0 675 0 674 -47 38
c-84 66 -246 236 -300 314 -140 204 -204 397 -204 618 1 466 281 887 736 1105
227 109 423 154 707 163 383 12 708 -73 948 -248 37 -27 76 -49 86 -49 11 0
35 10 54 21 76 47 271 139 376 177 242 89 466 123 665 103z m-3652 -936 c-30
-109 -49 -241 -49 -348 l0 -98 -133 -133 c-306 -306 -551 -628 -766 -1008
-204 -360 -364 -775 -470 -1221 -34 -144 -52 -176 -114 -206 -53 -26 -99 -26
-152 -2 -48 22 -69 44 -91 96 -20 50 -16 80 41 310 164 650 473 1287 879 1810
136 176 222 272 415 466 164 164 447 416 457 406 1 -1 -6 -34 -17 -72z m751
-2793 c0 -4 -18 -57 -40 -118 -22 -60 -42 -121 -46 -136 -9 -46 -28 -47 -21
-2 4 21 7 90 7 152 l0 112 50 0 c28 0 50 -4 50 -8z m4608 -94 c73 -188 146
-438 187 -639 85 -426 -50 -1090 -339 -1667 -176 -352 -376 -632 -641 -898
-368 -370 -757 -591 -1178 -671 -116 -22 -435 -25 -547 -5 -443 79 -823 281
-1174 622 -317 308 -558 663 -740 1087 -179 419 -286 907 -286 1309 0 174 93
554 212 862 l39 102 2214 0 2213 0 40 -102z m202 5 c0 -54 3 -123 6 -153 4
-35 3 -51 -3 -45 -8 8 -76 198 -100 278 -5 15 2 17 46 17 l51 0 0 -97z m-5056
-879 c13 -5 16 -24 16 -109 l0 -102 -41 -28 c-22 -16 -52 -49 -67 -74 -25 -43
-27 -54 -26 -156 0 -96 4 -122 32 -205 44 -134 107 -236 207 -335 83 -84 84
-85 140 -226 30 -78 54 -143 52 -145 -7 -8 -169 123 -248 200 -154 153 -285
369 -345 571 -36 123 -39 287 -7 390 26 81 70 156 107 181 56 36 139 54 180
38z m5307 -6 c53 -15 115 -71 143 -127 41 -82 51 -138 51 -276 -1 -123 -3
-136 -37 -237 -21 -58 -51 -135 -69 -170 -67 -133 -181 -289 -286 -390 -50
-48 -234 -190 -240 -184 -2 1 9 29 23 62 15 32 41 97 59 144 30 77 42 94 122
175 135 137 207 275 239 455 25 145 -4 247 -84 305 l-42 30 6 105 c4 58 8 108
11 113 6 11 60 9 104 -5z m-7355 -827 c62 -28 90 -72 114 -181 29 -132 75
-307 111 -420 47 -146 34 -220 -49 -276 -42 -29 -93 -37 -141 -24 -48 13 -99
53 -113 89 -53 138 -168 578 -168 648 0 78 34 131 105 164 51 24 89 23 141 0z
m3870 -2365 c367 -162 777 -212 1109 -134 109 25 256 75 360 123 43 19 79 35
81 35 2 0 4 -141 4 -312 0 -345 1 -341 -72 -483 -109 -214 -274 -342 -528
-412 -102 -28 -406 -24 -515 5 -236 65 -406 204 -514 419 l-31 62 0 371 c0
203 2 370 4 370 2 0 48 -20 102 -44z m-236 -406 l0 -190 -56 0 c-63 0 -91 -12
-103 -43 -10 -26 3 -262 20 -357 16 -92 48 -211 65 -237 17 -27 50 -30 82 -7
26 18 28 47 7 124 -21 77 -43 210 -51 308 -7 82 -7 82 18 82 20 0 30 -12 61
-79 171 -366 548 -561 1009 -520 184 16 337 63 462 143 130 83 272 248 337
392 24 53 33 64 54 64 24 0 24 -1 19 -67 -25 -301 -93 -509 -223 -680 -116
-153 -256 -245 -466 -310 -84 -25 -102 -27 -280 -27 -177 -1 -197 1 -298 27
-59 16 -116 25 -126 22 -27 -8 -246 -237 -306 -318 -27 -37 -53 -67 -57 -67
-5 0 -44 18 -88 40 -516 260 -888 724 -1030 1288 -42 163 -41 165 24 207 94
60 328 180 467 240 138 59 410 155 442 155 16 0 17 -16 17 -190z m2100 140
c247 -83 548 -223 734 -340 66 -42 66 -43 60 -79 -95 -561 -443 -1065 -938
-1355 -51 -31 -100 -58 -108 -61 -10 -4 -32 15 -66 58 -27 35 -92 107 -143
161 l-94 97 38 25 c71 47 198 177 251 258 130 198 199 435 213 732 6 125 5
132 -16 153 -16 16 -33 21 -71 21 l-50 0 0 190 c0 186 0 190 21 190 11 0 87
-22 169 -50z m-3179 -551 c45 -187 103 -343 189 -507 197 -375 529 -701 909
-891 l82 -42 -19 -32 c-131 -219 -230 -457 -280 -672 -51 -218 -54 -475 -7
-570 26 -54 80 -96 150 -118 25 -7 98 -12 190 -11 128 1 172 5 302 33 164 34
370 92 499 139 l81 30 84 -30 c292 -105 629 -178 821 -178 213 0 316 61 342
203 11 59 8 267 -4 358 -34 250 -150 560 -304 812 -26 43 -46 80 -44 81 1 1
51 31 110 66 205 120 384 273 540 460 219 261 356 535 429 855 13 55 24 102
26 104 1 2 48 -32 105 -74 379 -288 696 -639 932 -1035 292 -490 460 -1017
501 -1570 l6 -85 -93 -66 c-795 -564 -1721 -929 -2685 -1059 -553 -75 -1192
-71 -1738 11 -919 138 -1840 509 -2589 1042 l-99 71 7 110 c8 131 37 326 72
486 155 701 557 1394 1084 1866 125 112 370 307 377 301 2 -3 13 -42 24 -88z
m2619 -1146 c231 -234 416 -537 524 -863 63 -188 81 -293 81 -475 0 -128 -3
-155 -18 -178 -58 -88 -275 -86 -642 7 -99 25 -218 58 -265 74 -98 34 -93 18
-66 192 46 296 24 766 -54 1147 -11 52 -20 101 -20 107 0 8 31 17 78 25 42 7
113 25 157 41 44 15 89 28 99 28 13 1 58 -36 126 -105z m-868 48 c46 -11 127
-23 181 -27 80 -6 97 -10 97 -23 0 -9 -9 -62 -20 -117 -77 -397 -94 -865 -42
-1169 14 -79 16 -112 8 -117 -19 -12 -225 -76 -346 -107 -177 -45 -304 -64
-430 -65 -101 -1 -121 2 -162 22 -36 18 -50 31 -58 58 -18 55 -13 275 9 398
56 308 228 671 448 946 69 88 202 220 219 220 7 0 50 -9 96 -19z m362 -538
c15 -46 25 -387 16 -523 -11 -153 -23 -256 -32 -265 -15 -15 -33 220 -33 425
0 258 10 380 30 380 8 0 16 -8 19 -17z"/>
</g>
</svg>
