<svg id="Layer_1" data-name="Layer 1" xmlns="http://www.w3.org/2000/svg" viewBox="0 0 49.46 50"><path d="M28.3,10.8a20.6,20.6,0,0,0,0,41.2,20.18,20.18,0,0,0,13.45-5.15L42.9,48l-1,1.1a1.51,1.51,0,0,0,0,2.15l9,9.1a1.44,1.44,0,0,0,1,.45A1.36,1.36,0,0,0,53,60.35l4-4.05a1.49,1.49,0,0,0-.05-2.1l-9-9.1a1.44,1.44,0,0,0-1-.45,1.36,1.36,0,0,0-1.05.45l-1,1.1L43.6,45a20.78,20.78,0,0,0,5.1-13.6A20.53,20.53,0,0,0,28.3,10.8Zm0,3a17.58,17.58,0,1,1-17.4,17.6A17.52,17.52,0,0,1,28.3,13.85Zm.05,6.25a11.31,11.31,0,0,0-10.6,7.55,1.26,1.26,0,0,0,.8,1.65,1.46,1.46,0,0,0,.45.1,1.34,1.34,0,0,0,1.25-.9,8.66,8.66,0,0,1,8.1-5.8,1.3,1.3,0,0,0,0-2.6Zm-9.5,12.35a1.29,1.29,0,0,0-1.3,1.3V34a1.37,1.37,0,0,0,1.35,1.3A1.32,1.32,0,0,0,20.2,34V33.8a1.3,1.3,0,0,0-1.3-1.35ZM46.9,48.3l6.9,7-1.9,1.9-6.9-7Z" transform="translate(-7.9 -10.8)"/></svg>